<?xml version="1.0" encoding="UTF-8"?>
<svg version="1.1" xmlns="http://www.w3.org/2000/svg" width="1024" height="1024">
<path d="M0 0 C0.76597504 0.00149048 1.53195007 0.00298096 2.32113647 0.0045166 C33.02716491 0.11043625 63.38912666 3.84297193 92.9375 12.3125 C93.91992676 12.59029297 94.90235352 12.86808594 95.91455078 13.15429688 C99.09102191 14.05384594 102.2648138 14.96219556 105.4375 15.875 C106.4164624 16.15577393 107.3954248 16.43654785 108.40405273 16.72583008 C115.02210378 18.65930057 121.48086899 20.89791468 127.9375 23.3125 C129.59845703 23.90804687 129.59845703 23.90804687 131.29296875 24.515625 C139.50919997 27.55279737 147.23430728 31.31762443 155.00756836 35.32397461 C157.02664784 36.35816219 159.05495585 37.3722182 161.0859375 38.3828125 C169.10151438 42.38329901 176.76950432 46.77122629 184.2890625 51.640625 C187.47797488 53.65368473 190.74328858 55.48179422 194.0625 57.26953125 C195.73653111 58.20071105 197.34363475 59.24992316 198.9375 60.3125 C198.9375 60.9725 198.9375 61.6325 198.9375 62.3125 C200.2575 62.6425 201.5775 62.9725 202.9375 63.3125 C202.9375 63.9725 202.9375 64.6325 202.9375 65.3125 C203.618125 65.539375 204.29875 65.76625 205 66 C208.6363709 67.62476146 211.96579263 69.64053257 214.9375 72.3125 C214.9375 72.9725 214.9375 73.6325 214.9375 74.3125 C216.2575 74.6425 217.5775 74.9725 218.9375 75.3125 C218.9375 75.9725 218.9375 76.6325 218.9375 77.3125 C219.47890625 77.53550781 220.0203125 77.75851563 220.578125 77.98828125 C223.68726636 79.73331257 226.11595996 82.06569589 228.6875 84.5 C229.75460352 85.49413918 230.82231304 86.48762828 231.890625 87.48046875 C232.40947266 87.96435059 232.92832031 88.44823242 233.46289062 88.94677734 C239.09323858 94.1745684 239.09323858 94.1745684 245.15625 98.875 C245.7440625 99.349375 246.331875 99.82375 246.9375 100.3125 C246.9375 100.9725 246.9375 101.6325 246.9375 102.3125 C248.2575 102.9725 249.5775 103.6325 250.9375 104.3125 C250.9375 104.9725 250.9375 105.6325 250.9375 106.3125 C252.2575 106.9725 253.5775 107.6325 254.9375 108.3125 C254.9375 108.9725 254.9375 109.6325 254.9375 110.3125 C255.9275 110.6425 256.9175 110.9725 257.9375 111.3125 C259.67293807 113.31882119 261.28195222 115.32288497 262.875 117.4375 C263.85720128 118.71681551 264.84030602 119.99543779 265.82421875 121.2734375 C266.33388184 121.93827148 266.84354492 122.60310547 267.36865234 123.28808594 C269.42355644 125.93969888 271.5312232 128.54639083 273.64233398 131.15332031 C278.67449709 137.37097168 283.48683061 143.65955638 287.9375 150.3125 C288.43507813 151.04597656 288.93265625 151.77945313 289.4453125 152.53515625 C290.95998482 154.78337406 292.45327048 157.04407705 293.9375 159.3125 C294.45828125 160.10785156 294.9790625 160.90320313 295.515625 161.72265625 C306.25777179 178.36294438 316.47043504 195.36140907 322.8515625 214.18359375 C324.67044729 219.42433732 326.9395652 224.39646519 329.5 229.3125 C333.16293813 236.95689262 335.16436698 245.37802451 337.5 253.5 C339.66579063 261.10413342 339.66579063 261.10413342 342.0625 268.63671875 C354.72565981 307.36111371 353.85970976 358.08893109 348.9375 398.3125 C348.81971191 399.30701172 348.70192383 400.30152344 348.58056641 401.32617188 C346.38087557 419.74031582 346.38087557 419.74031582 344.37939453 428.32202148 C343.80103637 430.92718949 343.45857841 433.54086693 343.125 436.1875 C341.79213064 445.08362807 339.37853182 453.66821895 336.9375 462.3125 C336.6998291 463.1586084 336.4621582 464.0047168 336.21728516 464.87646484 C333.27061096 475.27567874 329.96445183 485.32172685 325.76904297 495.29003906 C324.84292405 497.5425256 323.9679035 499.81129436 323.09765625 502.0859375 C319.03836435 512.632157 314.44633533 522.61170233 308.94970703 532.48486328 C307.51491902 535.07551043 306.13925393 537.69722041 304.75 540.3125 C302.52913493 544.36374838 300.09987289 548.20125764 297.49609375 552.015625 C293.75357859 557.5309105 290.20204533 563.18008372 286.78515625 568.90234375 C286.42534668 569.50079102 286.06553711 570.09923828 285.69482422 570.71582031 C284.66963549 572.42555998 283.65297803 574.14040643 282.63671875 575.85546875 C282.07597656 576.66628906 281.51523437 577.47710938 280.9375 578.3125 C280.2775 578.3125 279.6175 578.3125 278.9375 578.3125 C278.66421875 578.89225586 278.3909375 579.47201172 278.109375 580.06933594 C276.13203084 583.85430221 273.49245563 587.15187527 270.9375 590.5625 C270.3909375 591.30757812 269.844375 592.05265625 269.28125 592.8203125 C268.7553125 593.52414062 268.229375 594.22796875 267.6875 594.953125 C267.20796875 595.59797852 266.7284375 596.24283203 266.234375 596.90722656 C265.80640625 597.3709668 265.3784375 597.83470703 264.9375 598.3125 C264.2775 598.3125 263.6175 598.3125 262.9375 598.3125 C262.54304687 599.18068359 262.54304687 599.18068359 262.140625 600.06640625 C258.79864643 606.30548962 253.30299024 610.86028469 247.9375 615.3125 C246.89580838 616.4817457 245.87549876 617.67031781 244.875 618.875 C242.47485722 621.76021101 240.04043359 624.15768501 236.9375 626.3125 C236.2775 626.3125 235.6175 626.3125 234.9375 626.3125 C234.2775 627.6325 233.6175 628.9525 232.9375 630.3125 C232.2775 630.3125 231.6175 630.3125 230.9375 630.3125 C230.63972656 631.14201172 230.63972656 631.14201172 230.3359375 631.98828125 C228.36950977 635.25650611 225.56095732 637.23685483 222.5625 639.5 C221.94125244 639.97832275 221.32000488 640.45664551 220.67993164 640.94946289 C218.77282855 642.41334716 216.85706609 643.86500719 214.9375 645.3125 C214.3595166 645.74884766 213.7815332 646.18519531 213.18603516 646.63476562 C210.65030035 648.54566804 208.10843326 650.44779917 205.55859375 652.33984375 C203.79953863 653.66372279 202.06743637 655.02413019 200.36328125 656.41796875 C198.18806996 658.11680526 196.12572687 659.41420374 193.6875 660.6875 C190.63543593 662.33322082 187.77516554 664.07173464 184.9375 666.0625 C175.34994789 672.56536143 164.64450224 677.4904041 154.3125 682.6875 C153.6743335 683.00895996 153.03616699 683.33041992 152.37866211 683.66162109 C148.29208227 685.697651 144.15561562 687.56925082 139.9375 689.3125 C139.15648926 689.63605469 138.37547852 689.95960938 137.57080078 690.29296875 C119.85332708 697.55895609 101.97353414 702.95345989 83.3828125 707.453125 C81.15139517 708.00971436 78.93269379 708.6212941 76.734375 709.296875 C30.86923365 721.56532845 -22.0552131 718.37679104 -68.0625 709.3125 C-69.42834229 709.04518066 -69.42834229 709.04518066 -70.82177734 708.77246094 C-80.55972243 706.83057218 -90.02796846 704.30208682 -99.45361328 701.16845703 C-102.62662085 700.12741599 -105.81157119 699.12635117 -108.99609375 698.12109375 C-133.37035897 690.3574054 -155.9087985 680.03042598 -177.375 666.0390625 C-180.2940662 664.16373218 -183.26917679 662.40034324 -186.25 660.625 C-191.65372236 657.31115099 -196.78615062 653.71615844 -201.875 649.9375 C-202.58744873 649.41325439 -203.29989746 648.88900879 -204.03393555 648.34887695 C-205.75007197 647.05475858 -207.41216337 645.68954597 -209.0625 644.3125 C-209.0625 643.6525 -209.0625 642.9925 -209.0625 642.3125 C-209.89201172 642.20808594 -209.89201172 642.20808594 -210.73828125 642.1015625 C-213.98632367 640.99886575 -215.77735132 639.04953957 -218.25 636.6875 C-222.48155305 632.71757523 -226.79279645 629.10268683 -231.48046875 625.6875 C-232.26357422 625.006875 -232.26357422 625.006875 -233.0625 624.3125 C-233.0625 623.6525 -233.0625 622.9925 -233.0625 622.3125 C-234.0525 621.9825 -235.0425 621.6525 -236.0625 621.3125 C-236.0625 620.3225 -236.0625 619.3325 -236.0625 618.3125 C-233.06561008 618.03384181 -231.49136915 618.04036303 -228.9140625 619.67578125 C-228.17929687 620.31902344 -227.44453125 620.96226562 -226.6875 621.625 C-222.32096633 625.30208098 -217.85562611 628.75710076 -213.25 632.125 C-212.61594238 632.59268799 -211.98188477 633.06037598 -211.32861328 633.54223633 C-208.63708232 635.51164055 -206.00787706 637.3439715 -203.11328125 639.01171875 C-202.43652344 639.44097656 -201.75976562 639.87023437 -201.0625 640.3125 C-201.0625 640.9725 -201.0625 641.6325 -201.0625 642.3125 C-200.4749292 642.44140625 -199.8873584 642.5703125 -199.28198242 642.703125 C-195.72316183 643.68022501 -192.60264506 645.56193764 -189.375 647.3125 C-188.62895508 647.71114258 -187.88291016 648.10978516 -187.11425781 648.52050781 C-183.27332608 650.5738361 -179.4445389 652.64870481 -175.62109375 654.734375 C-167.27777787 659.2585277 -159.01764562 663.10558974 -150.0625 666.3125 C-148.4966699 666.92910956 -146.93400166 667.55382416 -145.375 668.1875 C-144.56804687 668.50847656 -143.76109375 668.82945312 -142.9296875 669.16015625 C-141.37749445 669.78399406 -139.82643458 670.4108498 -138.28222656 671.05419922 C-124.85298546 676.64581703 -111.15103656 680.72074099 -97.0625 684.3125 C-96.1230957 684.55242676 -95.18369141 684.79235352 -94.21582031 685.03955078 C-87.53948098 686.70447034 -80.83290756 688.08803096 -74.0625 689.3125 C-72.98468262 689.51004883 -71.90686523 689.70759766 -70.79638672 689.91113281 C-31.24037748 696.80171632 14.32546357 697.36026287 53.32641602 686.98339844 C55.81185512 686.34478351 58.2885283 685.83430208 60.8125 685.375 C76.39201785 682.34840577 92.135819 677.01674138 106.9375 671.3125 C108.00460205 670.90475342 108.00460205 670.90475342 109.09326172 670.48876953 C119.97235403 666.31266602 130.53879619 661.81210049 140.85986328 656.3984375 C143.09572255 655.22980037 145.34218865 654.0832728 147.58984375 652.9375 C156.23292741 648.49757772 164.62673371 643.83632559 172.77539062 638.53564453 C176.07135099 636.40270729 179.22556868 634.61097027 182.9375 633.3125 C182.9375 632.6525 182.9375 631.9925 182.9375 631.3125 C184.37482092 630.33152071 185.86742382 629.43165239 187.375 628.5625 C196.51609268 622.93538581 204.62332906 615.79809885 212.71240234 608.77050781 C216.7288991 605.3125 216.7288991 605.3125 218.9375 605.3125 C219.2675 604.3225 219.5975 603.3325 219.9375 602.3125 C221.6796875 600.5234375 221.6796875 600.5234375 223.8125 598.6875 C224.51117187 598.07648437 225.20984375 597.46546875 225.9296875 596.8359375 C227.9375 595.3125 227.9375 595.3125 230.9375 594.3125 C232.14632096 592.31233534 232.14632096 592.31233534 232.9375 590.3125 C233.5975 590.3125 234.2575 590.3125 234.9375 590.3125 C235.5975 588.9925 236.2575 587.6725 236.9375 586.3125 C237.5975 586.3125 238.2575 586.3125 238.9375 586.3125 C239.19917969 585.73371094 239.46085938 585.15492188 239.73046875 584.55859375 C241.01042739 582.17679369 242.45106054 580.38933354 244.25 578.375 C244.86875 577.68148437 245.4875 576.98796875 246.125 576.2734375 C248.33093705 573.88684181 250.63972873 571.61027127 252.9375 569.3125 C253.5975 568.3225 254.2575 567.3325 254.9375 566.3125 C255.5975 566.3125 256.2575 566.3125 256.9375 566.3125 C257.205625 565.74015625 257.47375 565.1678125 257.75 564.578125 C258.97882636 562.23365366 260.36272176 560.18845062 261.9375 558.0625 C262.7109375 557.00289062 262.7109375 557.00289062 263.5 555.921875 C263.974375 555.39078125 264.44875 554.8596875 264.9375 554.3125 C265.5975 554.3125 266.2575 554.3125 266.9375 554.3125 C267.2675 552.9925 267.5975 551.6725 267.9375 550.3125 C268.5975 550.3125 269.2575 550.3125 269.9375 550.3125 C270.2159375 549.74015625 270.494375 549.1678125 270.78125 548.578125 C271.92023792 546.34632434 273.13686383 544.20379126 274.4375 542.0625 C274.8603125 541.35609375 275.283125 540.6496875 275.71875 539.921875 C276.1209375 539.39078125 276.523125 538.8596875 276.9375 538.3125 C277.5975 538.3125 278.2575 538.3125 278.9375 538.3125 C279.10958984 537.45398438 279.10958984 537.45398438 279.28515625 536.578125 C279.99932356 534.09778344 281.01057872 532.24881303 282.375 530.0625 C282.80683594 529.35609375 283.23867188 528.6496875 283.68359375 527.921875 C284.30427734 527.12523437 284.30427734 527.12523437 284.9375 526.3125 C285.5975 526.3125 286.2575 526.3125 286.9375 526.3125 C287.04320312 525.74273438 287.14890625 525.17296875 287.2578125 524.5859375 C288.04558707 521.95096737 289.2297248 520.18173349 290.8125 517.9375 C293.21715704 514.51781185 295.0865743 511.06005327 296.9375 507.3125 C298.76216817 503.98893454 300.65247261 500.70222754 302.53320312 497.41015625 C306.0702575 491.1767735 309.35145976 484.87390338 312.1015625 478.25 C312.70998218 476.83983101 313.35587437 475.44565239 314.0234375 474.0625 C317.23755163 467.34766284 319.64094784 460.50489969 321.88208008 453.41870117 C322.24015747 452.29878784 322.24015747 452.29878784 322.60546875 451.15625 C322.81453857 450.48787109 323.0236084 449.81949219 323.23901367 449.13085938 C323.9375 447.3125 323.9375 447.3125 325.9375 444.3125 C326.42939578 442.80837939 326.85884889 441.28340832 327.25 439.75 C328.18414637 436.15639612 329.14111067 432.57475836 330.171875 429.0078125 C332.3681205 421.37216103 334.41622702 413.88238197 335.48046875 405.98828125 C335.9375 403.3125 335.9375 403.3125 336.890625 400.32421875 C338.57353854 394.6421651 338.90264513 388.68490928 339.5 382.8125 C339.75036356 380.42698465 340.00163874 378.04156476 340.25390625 375.65625 C340.36162354 374.60630859 340.46934082 373.55636719 340.58032227 372.47460938 C340.82544883 370.30449372 341.12339098 368.13989076 341.46533203 365.98291016 C342.01442859 361.71449355 342.13576479 357.54086615 342.17578125 353.2421875 C342.18543915 352.37554977 342.19509705 351.50891205 342.20504761 350.61601257 C342.22987305 347.80646468 342.2424508 344.99714583 342.25 342.1875 C342.25295074 341.22963593 342.25590149 340.27177185 342.25894165 339.28488159 C342.27284085 319.42292463 340.66830492 300.25136764 335.60839844 280.96582031 C334.98149689 278.48650226 334.46498904 276.01404628 334 273.5 C331.87022394 262.53429352 328.63164655 251.84227204 324.9375 241.3125 C324.63070312 240.39984375 324.32390625 239.4871875 324.0078125 238.546875 C321.89776677 232.44343694 319.26835142 226.77237644 316.31640625 221.03125 C315.23194162 218.89304212 314.23221671 216.77384071 313.3125 214.5625 C308.72513717 203.71964239 303.041869 193.12068133 296.34765625 183.4453125 C294.3943192 180.49095785 292.74997236 177.39620988 291.11328125 174.2578125 C289.91615449 172.27718417 288.59988629 170.90712598 286.9375 169.3125 C285.9375 167.64583333 284.9375 165.97916667 283.9375 164.3125 C282.36458463 162.21527951 280.76433008 160.14323511 279.14453125 158.08203125 C277.9375 156.3125 277.9375 156.3125 277.9375 154.3125 C277.2775 154.3125 276.6175 154.3125 275.9375 154.3125 C275.81375 153.384375 275.81375 153.384375 275.6875 152.4375 C275.44 151.73625 275.1925 151.035 274.9375 150.3125 C274.02291016 149.87550781 274.02291016 149.87550781 273.08984375 149.4296875 C270.50138135 148.08612988 269.45279619 146.66698361 267.75 144.3125 C264.39833473 139.83640508 260.7694822 135.71711545 256.99609375 131.59375 C255.38531227 129.80874738 253.86373343 128.00972649 252.375 126.125 C249.84821521 123.20947909 247.17413482 120.79570246 244.2421875 118.30078125 C241.58486825 116.0082804 239.01531917 113.63144791 236.4375 111.25 C232.56057451 107.69750342 228.62929475 104.45273526 224.30078125 101.46875 C223.85089844 101.0871875 223.40101563 100.705625 222.9375 100.3125 C222.9375 99.6525 222.9375 98.9925 222.9375 98.3125 C221.6175 97.9825 220.2975 97.6525 218.9375 97.3125 C218.9375 96.6525 218.9375 95.9925 218.9375 95.3125 C218.07125 94.9103125 218.07125 94.9103125 217.1875 94.5 C214.16531204 92.90495635 211.62367453 90.84857385 208.9375 88.75 C207.00466912 87.3607778 205.09265643 86.31310834 202.9375 85.3125 C202.9375 84.6525 202.9375 83.9925 202.9375 83.3125 C202.19757812 83.03921875 201.45765625 82.7659375 200.6953125 82.484375 C198.11151352 81.38644342 196.09557585 80.1771468 193.8125 78.5625 C165.86822346 59.56589822 128.44851053 43.53799125 95.21875 37.8046875 C92.9375 37.3125 92.9375 37.3125 90.109375 36.3203125 C86.61720151 35.21073028 83.32489129 34.73863789 79.6875 34.3125 C75.57255577 33.82634625 71.59759337 33.25257266 67.5546875 32.3515625 C60.66737704 30.93790662 53.67797154 30.44402577 46.68115234 29.87988281 C44.33734171 29.68951765 41.99493414 29.48602361 39.65234375 29.28125 C24.35588615 27.98677394 9.35278907 28.1228376 -5.9362793 29.42944336 C-8.25815239 29.62568904 -10.58095384 29.8045291 -12.90429688 29.98242188 C-20.87546587 30.62717557 -28.48520539 31.61506071 -36.25292969 33.63012695 C-39.20180549 34.34633375 -42.11740805 34.79374912 -45.125 35.1875 C-53.51324056 36.40038047 -61.65647548 38.58871349 -69.84521484 40.73388672 C-71.67119306 41.21038621 -73.50112057 41.67172545 -75.33203125 42.12890625 C-81.24400403 43.64368698 -86.85427459 45.67698947 -92.52734375 47.921875 C-95.74469816 49.18748624 -98.97518912 50.40193593 -102.21801758 51.59985352 C-118.67640681 57.69093474 -134.06154191 65.63357941 -149.5 73.9375 C-150.50619385 74.47560303 -151.5123877 75.01370605 -152.54907227 75.56811523 C-157.99371445 78.51663863 -163.17349399 81.61349997 -168.20727539 85.22412109 C-170.0625 86.3125 -170.0625 86.3125 -173.0625 86.3125 C-173.0625 86.9725 -173.0625 87.6325 -173.0625 88.3125 C-174.92578125 89.8203125 -174.92578125 89.8203125 -177.375 91.4375 C-178.17550781 91.97632813 -178.97601563 92.51515625 -179.80078125 93.0703125 C-182.0625 94.3125 -182.0625 94.3125 -185.0625 94.3125 C-185.3925 95.3025 -185.7225 96.2925 -186.0625 97.3125 C-187.43882433 98.2859977 -188.82352398 99.25003193 -190.25 100.1484375 C-194.78169111 103.05887705 -199.00412909 106.25412909 -202.8125 110.0625 C-205.0625 112.3125 -205.0625 112.3125 -207.25 113.375 C-209.59110931 114.58591861 -210.10321126 115.91427814 -211.0625 118.3125 C-211.7225 118.3125 -212.3825 118.3125 -213.0625 118.3125 C-213.45888672 119.21548828 -213.45888672 119.21548828 -213.86328125 120.13671875 C-215.12838341 122.4320344 -216.22019933 123.49847098 -218.25 125.125 C-222.72591604 128.90466243 -226.85902279 132.98696278 -231 137.125 C-232.01259888 138.131073 -232.01259888 138.131073 -233.0456543 139.1574707 C-233.67898682 139.79257568 -234.31231934 140.42768066 -234.96484375 141.08203125 C-235.82323853 141.94211792 -235.82323853 141.94211792 -236.69897461 142.81958008 C-238.16312576 144.28627378 -238.16312576 144.28627378 -239.0625 146.3125 C-239.7225 146.3125 -240.3825 146.3125 -241.0625 146.3125 C-241.7225 147.6325 -242.3825 148.9525 -243.0625 150.3125 C-243.7225 150.3125 -244.3825 150.3125 -245.0625 150.3125 C-245.30742187 150.85777344 -245.55234375 151.40304687 -245.8046875 151.96484375 C-247.34322592 154.83646359 -249.20893952 157.28632593 -251.1875 159.875 C-252.00321081 160.9500608 -252.81830284 162.02559137 -253.6328125 163.1015625 C-254.04176758 163.64071289 -254.45072266 164.17986328 -254.87207031 164.73535156 C-263.52460969 176.19872408 -271.75229377 187.92875267 -279.171875 200.2265625 C-280.85774082 202.97828563 -282.63243664 205.63864447 -284.4375 208.3125 C-297.26074372 228.38366409 -305.08499512 251.91498501 -312.421875 274.4375 C-313.04922497 276.27364626 -313.77392846 278.07560532 -314.5 279.875 C-332.24423775 327.19296732 -332.73104023 392.38872435 -321.74487305 441.19165039 C-321.14068857 443.95490269 -320.63420984 446.70777345 -320.1875 449.5 C-319.26499297 454.71720361 -317.96651083 459.81550276 -316.625 464.9375 C-316.41955566 465.72535889 -316.21411133 466.51321777 -316.00244141 467.32495117 C-314.56154467 472.73028855 -312.88193381 478.02358301 -311.0625 483.3125 C-310.74667969 484.25738281 -310.43085938 485.20226562 -310.10546875 486.17578125 C-308.06249908 492.02483139 -305.60480484 497.50305924 -302.7578125 503.00390625 C-301.52200576 505.41572263 -300.33488674 507.82768676 -299.1796875 510.27734375 C-292.32373119 524.68877444 -284.93990216 535.63742773 -269.359375 541.2421875 C-240.45481671 550.62589481 -204.30380101 540.64493554 -177.0625 529.3125 C-175.3827384 528.33465607 -173.71355529 527.33807018 -172.0625 526.3125 C-170.15970979 525.56769355 -168.24130443 524.86208186 -166.3125 524.1875 C-154.919717 519.9071241 -144.16951416 513.88129482 -133.9453125 507.30859375 C-132.0625 506.3125 -132.0625 506.3125 -129.0625 506.3125 C-129.0625 505.6525 -129.0625 504.9925 -129.0625 504.3125 C-127.453125 503.05859375 -127.453125 503.05859375 -125.3125 501.75 C-124.61640625 501.31558594 -123.9203125 500.88117188 -123.203125 500.43359375 C-121.0625 499.3125 -121.0625 499.3125 -118.859375 498.84765625 C-118.26640625 498.67105469 -117.6734375 498.49445313 -117.0625 498.3125 C-116.7325 497.3225 -116.4025 496.3325 -116.0625 495.3125 C-113.91015625 493.5859375 -113.91015625 493.5859375 -111.125 491.6875 C-106.06162923 488.1312422 -101.54725194 484.25165704 -97.05859375 480 C-95.0625 478.3125 -95.0625 478.3125 -93.0625 478.3125 C-92.4025 476.9925 -91.7425 475.6725 -91.0625 474.3125 C-90.4025 474.3125 -89.7425 474.3125 -89.0625 474.3125 C-88.4025 472.9925 -87.7425 471.6725 -87.0625 470.3125 C-86.4025 470.3125 -85.7425 470.3125 -85.0625 470.3125 C-84.4025 468.9925 -83.7425 467.6725 -83.0625 466.3125 C-82.4025 466.3125 -81.7425 466.3125 -81.0625 466.3125 C-80.82273437 465.76980469 -80.58296875 465.22710938 -80.3359375 464.66796875 C-78.74299038 461.72150521 -76.75859595 459.25687443 -74.6875 456.625 C-67.98338378 447.84599044 -62.11714654 436.36188491 -63.1875 424.9375 C-64.74083861 418.50224004 -67.24115048 414.78946741 -72.0625 410.3125 C-72.825625 409.4875 -73.58875 408.6625 -74.375 407.8125 C-77.22520415 405.1611473 -80.11795151 403.33833436 -83.48828125 401.42578125 C-84.00777344 401.05839844 -84.52726562 400.69101562 -85.0625 400.3125 C-85.0625 399.6525 -85.0625 398.9925 -85.0625 398.3125 C-85.62195313 398.20679688 -86.18140625 398.10109375 -86.7578125 397.9921875 C-89.48391051 397.18821961 -91.53006135 395.94496159 -93.9375 394.4375 C-97.56423846 392.17505187 -101.2320378 390.20890819 -105.0625 388.3125 C-106.33594303 387.63378016 -107.60661652 386.94984745 -108.875 386.26171875 C-116.70709087 382.02353796 -124.51513422 378.1193491 -132.7421875 374.69921875 C-141.80080595 370.9159134 -150.6102502 366.6145777 -159.33154297 362.11572266 C-162.53698286 360.48304149 -165.71478746 359.02571228 -169.09765625 357.796875 C-172.94594361 356.39796486 -176.57873973 354.68074552 -180.1875 352.75 C-180.82494141 352.4092041 -181.46238281 352.0684082 -182.11914062 351.71728516 C-189.19531626 347.83236016 -195.647567 343.19414798 -202.0625 338.3125 C-202.77148438 337.79042969 -203.48046875 337.26835937 -204.2109375 336.73046875 C-208.75347351 333.16426967 -211.88208235 328.714118 -215.16796875 323.99609375 C-217.02561948 321.29075142 -217.02561948 321.29075142 -219.140625 318.80859375 C-221.10298732 316.25991586 -222.34703309 313.88146339 -223.625 310.9375 C-224.04523438 309.97070312 -224.46546875 309.00390625 -224.8984375 308.0078125 C-225.28257812 307.11835938 -225.66671875 306.22890625 -226.0625 305.3125 C-226.619375 304.1575 -227.17625 303.0025 -227.75 301.8125 C-234.78952005 283.04044652 -231.19803038 261.48606231 -223.171875 243.62890625 C-219.6700272 236.25972653 -215.67223168 229.04591062 -211.0625 222.3125 C-210.4025 222.3125 -209.7425 222.3125 -209.0625 222.3125 C-208.94841797 221.49072266 -208.94841797 221.49072266 -208.83203125 220.65234375 C-207.77665748 217.44336461 -205.92828873 215.44545201 -203.75 212.875 C-202.97011719 211.94816406 -202.19023437 211.02132812 -201.38671875 210.06640625 C-200.61972656 209.15761719 -199.85273438 208.24882812 -199.0625 207.3125 C-197.98935547 205.90291016 -197.98935547 205.90291016 -196.89453125 204.46484375 C-196.28996094 203.75457031 -195.68539062 203.04429687 -195.0625 202.3125 C-194.4025 202.3125 -193.7425 202.3125 -193.0625 202.3125 C-192.66804688 201.44431641 -192.66804688 201.44431641 -192.265625 200.55859375 C-188.92044916 194.31354146 -183.42248488 189.77915407 -178.0625 185.3125 C-176.23909824 183.29416888 -174.48117993 181.22787817 -172.71875 179.15625 C-170.705633 176.91523296 -168.41773389 175.18460899 -166.0625 173.3125 C-164.4905895 171.47660453 -162.9754448 169.61131547 -161.4921875 167.703125 C-160.0625 166.3125 -160.0625 166.3125 -157.0625 166.3125 C-156.82402344 165.72210938 -156.58554687 165.13171875 -156.33984375 164.5234375 C-154.77959695 161.82282683 -153.19250929 160.70791982 -150.625 158.9375 C-149.64789063 158.25042969 -148.67078125 157.56335938 -147.6640625 156.85546875 C-147.10364258 156.46278809 -146.54322266 156.07010742 -145.96582031 155.66552734 C-142.10158861 152.91853247 -138.30914047 150.0725898 -134.5 147.25 C-106.12001282 126.3125 -106.12001282 126.3125 -101.0625 126.3125 C-101.0625 125.6525 -101.0625 124.9925 -101.0625 124.3125 C-100.16789063 123.80460937 -99.27328125 123.29671875 -98.3515625 122.7734375 C-92.76123873 119.5927093 -87.18049849 116.40979596 -81.6875 113.0625 C-56.6026571 97.91306132 -26.85934066 89.08074039 2.375 89.1875 C3.43009766 89.18363281 4.48519531 89.17976563 5.57226562 89.17578125 C15.31354807 89.18777052 24.68537158 89.25008313 33.8125 92.9375 C34.48087891 93.1967627 35.14925781 93.45602539 35.83789062 93.72314453 C42.49677961 96.38512219 48.73581424 99.72316817 54.9375 103.3125 C54.9375 103.9725 54.9375 104.6325 54.9375 105.3125 C55.494375 105.539375 56.05125 105.76625 56.625 106 C59.63265124 107.7070453 61.57049102 109.78035086 63.9375 112.3125 C64.50984375 112.91449219 65.0821875 113.51648438 65.671875 114.13671875 C71.98898605 121.00725192 74.83570063 127.29121754 77.1875 136.3125 C77.3630542 136.97701172 77.5386084 137.64152344 77.71948242 138.32617188 C79.58048937 145.96935842 79.192653 152.66895491 77.3125 160.3125 C77.1371875 161.04017578 76.961875 161.76785156 76.78125 162.51757812 C74.80439105 170.36408333 71.99354 177.8310469 68.9375 185.3125 C68.61007812 186.116875 68.28265625 186.92125 67.9453125 187.75 C64.95010689 194.7476485 61.38237733 201.50519833 57.953125 208.29736328 C56.27273251 211.63148818 54.60574614 214.97228395 52.9375 218.3125 C52.2775 218.3125 51.6175 218.3125 50.9375 218.3125 C50.83308594 218.87066406 50.72867187 219.42882812 50.62109375 220.00390625 C47.73494264 229.75085087 39.18779897 238.40323906 32.9375 246.3125 C31.41254561 248.24526229 29.88786336 250.17823471 28.36425781 252.11206055 C27.38799156 253.34967808 26.40955021 254.58558361 25.42871094 255.81958008 C22.95220879 258.91392565 22.95220879 258.91392565 20.9375 262.3125 C20.2775 262.3125 19.6175 262.3125 18.9375 262.3125 C18.6075 263.6325 18.2775 264.9525 17.9375 266.3125 C17.2775 266.3125 16.6175 266.3125 15.9375 266.3125 C15.70417969 266.99957031 15.47085937 267.68664062 15.23046875 268.39453125 C13.66181427 271.93466688 11.5361605 274.9019758 9.25 278 C8.34705288 279.23914389 7.44471276 280.47873031 6.54296875 281.71875 C6.10001465 282.32589844 5.65706055 282.93304688 5.20068359 283.55859375 C2.89405255 286.76130683 0.7020679 290.04386205 -1.4921875 293.32421875 C-5.70272264 298.65546847 -10.28820782 299.28064455 -16.796875 300.15625 C-22.6602945 300.43679639 -26.19459258 298.55777162 -31.0625 295.3125 C-31.7225 294.6525 -32.3825 293.9925 -33.0625 293.3125 C-33.0625 292.3225 -33.0625 291.3325 -33.0625 290.3125 C-33.7225 290.3125 -34.3825 290.3125 -35.0625 290.3125 C-38.74244583 283.84243132 -38.82550335 275.62165519 -36.8984375 268.5390625 C-34.10772067 261.10584476 -29.12496139 254.9106323 -24.3125 248.6875 C-23.5865564 247.7445105 -23.5865564 247.7445105 -22.84594727 246.7824707 C-21.63415715 245.25206793 -20.35361146 243.77660352 -19.0625 242.3125 C-18.4025 242.3125 -17.7425 242.3125 -17.0625 242.3125 C-16.7325 240.9925 -16.4025 239.6725 -16.0625 238.3125 C-15.4025 238.3125 -14.7425 238.3125 -14.0625 238.3125 C-13.84980469 237.63574219 -13.63710938 236.95898438 -13.41796875 236.26171875 C-11.62664019 232.36415949 -9.10652814 229.40625391 -6.375 226.125 C1.52089698 216.72087582 1.52089698 216.72087582 7.9375 206.3125 C8.5975 206.3125 9.2575 206.3125 9.9375 206.3125 C10.185 205.631875 10.4325 204.95125 10.6875 204.25 C12.17947908 200.74384917 14.00585511 197.59629632 15.9375 194.3125 C16.5975 194.3125 17.2575 194.3125 17.9375 194.3125 C18.246875 193.1059375 18.246875 193.1059375 18.5625 191.875 C20.02002994 188.09867244 21.88047197 185.24219236 24.16015625 181.92578125 C29.94325067 173.42272594 34.95621043 164.79444054 38.9375 155.3125 C39.47375 154.23613281 40.01 153.15976562 40.5625 152.05078125 C42.19851415 147.60286777 42.28131881 144.05253971 42.125 139.375 C42.10469727 138.20614258 42.10469727 138.20614258 42.08398438 137.01367188 C42.04900224 135.11297596 41.99520959 133.21264166 41.9375 131.3125 C25.86767021 123.56528027 4.03756896 129.91716065 -12.0859375 135.25 C-20.36050445 138.2036512 -28.4670477 141.38233576 -36.4296875 145.1015625 C-38.41069537 146.01270856 -40.41028405 146.88362153 -42.41796875 147.734375 C-46.17463273 149.36105479 -49.84050209 151.10568509 -53.5 152.9375 C-54.18666748 153.28087402 -54.87333496 153.62424805 -55.58081055 153.97802734 C-61.95502504 157.19958392 -68.17101682 160.67628743 -74.37109375 164.21875 C-77.52794284 166.02127436 -80.72382384 167.73800318 -83.9375 169.4375 C-89.28092726 172.34343518 -94.14219618 175.74829723 -99.0625 179.3125 C-100.63451172 180.40691406 -100.63451172 180.40691406 -102.23828125 181.5234375 C-110.89328765 187.56004946 -119.08857815 194.07090314 -127.21875 200.79345703 C-128.91901343 202.19428318 -130.62831203 203.58266975 -132.34375 204.96484375 C-133.3028125 205.73957031 -134.261875 206.51429688 -135.25 207.3125 C-136.06855469 207.9725 -136.88710938 208.6325 -137.73046875 209.3125 C-140.18015766 211.35939987 -140.18015766 211.35939987 -142.7265625 213.99609375 C-145.0625 216.3125 -145.0625 216.3125 -147.25 217.375 C-149.59110931 218.58591861 -150.10321126 219.91427814 -151.0625 222.3125 C-151.7225 222.3125 -152.3825 222.3125 -153.0625 222.3125 C-153.32417969 222.89128906 -153.58585938 223.47007812 -153.85546875 224.06640625 C-155.13542739 226.44820631 -156.57606054 228.23566646 -158.375 230.25 C-158.94863281 230.89839844 -159.52226562 231.54679688 -160.11328125 232.21484375 C-161.5341879 233.74395571 -163.00068213 235.23107382 -164.4921875 236.69140625 C-177.33785158 249.79086004 -189.84987365 267.55116757 -190.375 286.3125 C-190.28389414 291.81389204 -189.14968437 296.2598606 -187.0625 301.3125 C-186.7325 302.3025 -186.4025 303.2925 -186.0625 304.3125 C-185.7325 304.9725 -185.4025 305.6325 -185.0625 306.3125 C-184.0725 306.6425 -183.0825 306.9725 -182.0625 307.3125 C-179.375 309.75 -179.375 309.75 -177.0625 312.3125 C-177.0625 312.9725 -177.0625 313.6325 -177.0625 314.3125 C-176.3715625 314.56 -175.680625 314.8075 -174.96875 315.0625 C-171.61564903 316.50469396 -168.6387324 318.3717082 -165.5625 320.3125 C-156.9036039 325.64398863 -147.77121071 329.84919359 -138.56494141 334.13671875 C-127.17404289 339.48877409 -116.03704751 345.3622802 -104.94580078 351.3046875 C-103.27757177 352.19740844 -101.60583542 353.08356839 -99.93359375 353.96875 C-94.43837197 356.90787289 -89.16803943 360.07904584 -83.9609375 363.50390625 C-81.60926647 364.97132361 -79.25739425 366.29953356 -76.8203125 367.61328125 C-71.80627704 370.37501992 -67.19233047 373.58010638 -62.5625 376.9375 C-61.75296875 377.50984375 -60.9434375 378.0821875 -60.109375 378.671875 C-59.34109375 379.22617187 -58.5728125 379.78046875 -57.78125 380.3515625 C-57.08966797 380.84865723 -56.39808594 381.34575195 -55.68554688 381.85791016 C-54.0625 383.3125 -54.0625 383.3125 -53.0625 386.3125 C-51.75133466 387.02177263 -50.41366611 387.68276008 -49.0625 388.3125 C-44.56099598 391.80292402 -40.2975299 395.59474807 -37.0625 400.3125 C-37.0625 400.9725 -37.0625 401.6325 -37.0625 402.3125 C-36.19625 402.621875 -36.19625 402.621875 -35.3125 402.9375 C-28.25554071 407.25008623 -23.27539106 419.58613461 -21.0625 427.3125 C-17.21643317 448.1581822 -20.98986749 466.08001755 -32.1953125 483.796875 C-32.81148438 484.62703125 -33.42765625 485.4571875 -34.0625 486.3125 C-34.7225 486.3125 -35.3825 486.3125 -36.0625 486.3125 C-36.31773437 486.87453125 -36.57296875 487.4365625 -36.8359375 488.015625 C-41.0046012 495.82191244 -47.73845907 502.23538475 -54.0625 508.3125 C-54.8875 509.1375 -55.7125 509.9625 -56.5625 510.8125 C-57.3875 511.6375 -58.2125 512.4625 -59.0625 513.3125 C-59.62195313 513.89515625 -60.18140625 514.4778125 -60.7578125 515.078125 C-66.11184385 520.58389003 -71.7537947 525.90965559 -78.0625 530.3125 C-79.0525 530.3125 -80.0425 530.3125 -81.0625 530.3125 C-81.0625 530.9725 -81.0625 531.6325 -81.0625 532.3125 C-82.82281864 533.63497289 -84.64907125 534.87014141 -86.5 536.0625 C-88.15128906 537.13371094 -88.15128906 537.13371094 -89.8359375 538.2265625 C-90.90070313 538.91492188 -91.96546875 539.60328125 -93.0625 540.3125 C-94.58481059 541.35200658 -96.10582679 542.39341369 -97.625 543.4375 C-102.59564702 546.73949287 -107.79463871 549.51781303 -113.0625 552.3125 C-114.50580651 553.10829106 -115.94846644 553.90525546 -117.390625 554.703125 C-127.06901627 559.99926403 -136.62894478 564.29421294 -147.13037109 567.66918945 C-149.84773135 568.57394612 -152.52090956 569.58532635 -155.1965332 570.60595703 C-168.27109892 575.55660379 -181.39264251 578.43117454 -195.25 580.0625 C-196.31790771 580.19011719 -197.38581543 580.31773437 -198.48608398 580.44921875 C-211.62603868 581.88490474 -224.04027316 581.23425277 -237.0625 579.3125 C-238.05378906 579.17972656 -239.04507813 579.04695312 -240.06640625 578.91015625 C-247.47968267 577.77712274 -254.15915732 575.18797819 -261.0625 572.3125 C-261.0625 571.6525 -261.0625 570.9925 -261.0625 570.3125 C-261.63484375 570.19777344 -262.2071875 570.08304688 -262.796875 569.96484375 C-265.27721656 569.25067644 -267.12618697 568.23942128 -269.3125 566.875 C-270.01890625 566.44316406 -270.7253125 566.01132812 -271.453125 565.56640625 C-271.98421875 565.15261719 -272.5153125 564.73882813 -273.0625 564.3125 C-273.0625 563.6525 -273.0625 562.9925 -273.0625 562.3125 C-273.619375 562.250625 -274.17625 562.18875 -274.75 562.125 C-278.02128779 560.97562861 -279.65418118 558.78771657 -282.0625 556.3125 C-282.87847656 555.55453125 -283.69445312 554.7965625 -284.53515625 554.015625 C-292.67329651 546.30709999 -298.85804857 537.61331725 -305.0625 528.3125 C-305.72121094 527.343125 -306.37992188 526.37375 -307.05859375 525.375 C-312.34055656 517.37276535 -316.69232388 508.83535976 -321.0625 500.3125 C-321.58602051 499.30485596 -321.58602051 499.30485596 -322.12011719 498.27685547 C-324.37221968 493.88024858 -326.25836628 489.45578264 -327.9375 484.8125 C-328.45279809 483.40873412 -328.96843288 482.0050918 -329.484375 480.6015625 C-329.74412109 479.89161133 -330.00386719 479.18166016 -330.27148438 478.45019531 C-331.04370889 476.36328239 -331.83762602 474.28618177 -332.640625 472.2109375 C-336.88410095 461.20982588 -340.48544049 450.14952382 -342.6328125 438.52734375 C-343.02607068 436.5002766 -343.53861842 434.49729851 -344.0625 432.5 C-345.21453059 428.03588147 -345.84610576 423.50896344 -346.5 418.94921875 C-346.81073969 416.94020036 -347.13740154 414.93272028 -347.53076172 412.93823242 C-358.36385654 357.83887083 -349.17263598 294.93842457 -331.0625 242.3125 C-330.74410156 241.32636719 -330.42570312 240.34023438 -330.09765625 239.32421875 C-326.53984065 228.30784995 -321.92746511 217.80504637 -317.0625 207.3125 C-316.61535645 206.33458496 -316.61535645 206.33458496 -316.15917969 205.33691406 C-312.20563359 196.69272005 -308.14187555 188.36048836 -303.0625 180.3125 C-302.20328853 178.89600881 -301.34677721 177.4778781 -300.4921875 176.05859375 C-295.97358822 168.56864714 -291.44651575 161.14789012 -286.3046875 154.0625 C-285.00674173 152.32851331 -285.00674173 152.32851331 -284.0625 150.3125 C-283.4025 150.3125 -282.7425 150.3125 -282.0625 150.3125 C-281.8253125 149.78140625 -281.588125 149.2503125 -281.34375 148.703125 C-279.68871616 145.61507405 -277.65701872 142.8596528 -275.5625 140.0625 C-275.15902344 139.50820313 -274.75554687 138.95390625 -274.33984375 138.3828125 C-273.29799829 136.98680835 -272.18504588 135.64447608 -271.0625 134.3125 C-270.4025 134.3125 -269.7425 134.3125 -269.0625 134.3125 C-268.4025 132.9925 -267.7425 131.6725 -267.0625 130.3125 C-266.4025 130.3125 -265.7425 130.3125 -265.0625 130.3125 C-264.98 129.735 -264.8975 129.1575 -264.8125 128.5625 C-263.84452213 125.6585664 -262.37555716 124.27509396 -260.0625 122.3125 C-259.4025 122.3125 -258.7425 122.3125 -258.0625 122.3125 C-257.79824219 121.73242188 -257.53398437 121.15234375 -257.26171875 120.5546875 C-254.09523691 114.63429475 -248.94862555 110.09749315 -243.82421875 105.8828125 C-241.17431884 103.52081746 -238.93541854 100.84341587 -236.6328125 98.1484375 C-234.86859938 96.08580028 -233.09272512 94.11714455 -231.0625 92.3125 C-230.4025 92.3125 -229.7425 92.3125 -229.0625 92.3125 C-229.0625 91.6525 -229.0625 90.9925 -229.0625 90.3125 C-227.5234375 88.76171875 -227.5234375 88.76171875 -225.4375 87 C-224.71046875 86.38382812 -223.9834375 85.76765625 -223.234375 85.1328125 C-222.51765625 84.53210938 -221.8009375 83.93140625 -221.0625 83.3125 C-220.46953125 82.79429687 -219.8765625 82.27609375 -219.265625 81.7421875 C-215.30678571 78.3125 -215.30678571 78.3125 -213.0625 78.3125 C-212.7325 77.3225 -212.4025 76.3325 -212.0625 75.3125 C-210.11037556 73.79319953 -208.18551746 72.41793595 -206.125 71.0625 C-204.9228622 70.25437447 -203.72104164 69.44577681 -202.51953125 68.63671875 C-201.62935303 68.04189697 -201.62935303 68.04189697 -200.72119141 67.43505859 C-198.54847597 65.9646221 -196.43426672 64.41776993 -194.3125 62.875 C-177.57049648 51.18515805 -158.80928016 41.33464265 -140.0625 33.3125 C-139.01707031 32.84585938 -137.97164062 32.37921875 -136.89453125 31.8984375 C-129.67085806 28.71512389 -122.40233215 25.92343012 -114.92333984 23.40454102 C-110.7781971 21.99301863 -106.97350052 20.30385569 -103.0625 18.3125 C-101.64085122 17.80713831 -100.202339 17.3463852 -98.75 16.9375 C-95.58108626 16.03277276 -92.42121385 15.11634965 -89.26953125 14.15234375 C-75.70458404 10.01146513 -62.04062606 6.73716547 -47.98828125 4.7421875 C-45.24311362 4.33902536 -42.53543532 3.84320703 -39.8125 3.3125 C-26.57187236 0.89071215 -13.43935156 -0.06565948 0 0 Z " fill="#010101" transform="translate(505.0625,149.6875)"/>
<path d="M0 0 C2.50448578 2.05814178 4.77960022 4.23453278 6.97265625 6.62109375 C7.55015625 7.11609375 8.12765625 7.61109375 8.72265625 8.12109375 C12.00878066 12.06444304 11.3934599 18.74262434 10.97265625 23.62109375 C9.87506724 30.54454904 7.4858879 36.67384141 4.66015625 43.05859375 C4.28181641 43.93580078 3.90347656 44.81300781 3.51367188 45.71679688 C1.58619746 50.14248686 -0.44116285 54.48787822 -2.6328125 58.7890625 C-4.73555968 62.9419372 -6.46955327 67.11407546 -8.02734375 71.49609375 C-8.53481275 72.88341555 -9.04394368 74.27013049 -9.5546875 75.65625 C-9.9256958 76.66389404 -9.9256958 76.66389404 -10.30419922 77.69189453 C-12.73517054 84.17722045 -15.50386948 90.52069842 -18.40234375 96.80859375 C-20.57489139 101.52944414 -22.56568829 106.31014163 -24.52734375 111.12109375 C-26.81106365 116.71748912 -29.1727281 122.2552992 -31.7109375 127.7421875 C-33.37979829 131.39189196 -34.98590531 135.06749122 -36.58984375 138.74609375 C-39.367764 145.1140443 -42.15517125 151.47715461 -45.015625 157.80859375 C-47.10327752 162.45140398 -49.05720094 167.1264408 -50.90234375 171.87109375 C-51.85970487 174.21130983 -52.86890395 176.51113661 -53.90625 178.81640625 C-56.06945621 183.65534139 -58.02534454 188.56415642 -59.96484375 193.49609375 C-62.39577068 199.62647589 -64.89673846 205.68550469 -67.68359375 211.6640625 C-71.95876145 221.071917 -75.94190619 230.64095724 -79.58984375 240.30859375 C-81.64852656 245.75480813 -83.93993119 251.06898774 -86.29663086 256.39038086 C-89.41176574 263.44219689 -92.32788839 270.57162818 -95.24267578 277.70800781 C-96.34410365 280.3933808 -97.46689065 283.0696624 -98.58984375 285.74609375 C-100.17206908 289.52585427 -101.70337768 293.322105 -103.20581055 297.13427734 C-105.40730454 302.71554966 -107.71513204 308.19119984 -110.27734375 313.62109375 C-112.30038187 317.92331693 -113.77520645 322.02992366 -115.02734375 326.62109375 C-117.17507651 332.11835918 -119.5330696 337.5225801 -121.94921875 342.90625 C-124.04890015 347.62090837 -125.99463526 352.38852989 -127.90234375 357.18359375 C-128.24966553 358.05274414 -128.5969873 358.92189453 -128.95483398 359.81738281 C-131.32813625 365.78423066 -133.59271452 371.78441888 -135.80151367 377.8137207 C-137.57796477 382.59461511 -139.60949234 387.22716376 -141.71484375 391.87109375 C-144.6226083 398.3030878 -146.64640816 404.6769605 -148.02734375 411.62109375 C-142.50501111 410.05600869 -137.09793452 408.30233107 -131.71484375 406.30859375 C-124.0718527 403.54287434 -116.3004135 401.35488099 -108.4765625 399.1640625 C-103.19906176 397.68297264 -97.95722741 396.09618687 -92.71484375 394.49609375 C-80.35434935 390.75180363 -67.886284 387.66482848 -55.23095703 385.07470703 C-53.59827546 384.73861991 -51.96658598 384.39770544 -50.33544922 384.05419922 C-36.38805242 381.11971649 -22.48273581 378.64598976 -8.33129883 376.93066406 C-6.70689612 376.71240162 -5.09050369 376.42985784 -3.48461914 376.10205078 C5.11142335 374.90621689 13.95362219 375.31325977 22.61767578 375.27099609 C25.08652218 375.25451342 27.55532241 375.22732672 30.02392578 375.18896484 C62.27561901 374.69145381 62.27561901 374.69145381 72.53930664 382.59838867 C75.64788225 385.64965249 76.83243525 387.89449404 77.66015625 392.18359375 C76.78243418 396.57220412 75.61233589 398.9826164 72.97265625 402.62109375 C66.05882885 406.73201815 55.83201859 406.02735648 48.03515625 406.55859375 C23.1815752 408.35883654 -0.77064634 413.00452782 -25.02734375 418.62109375 C-26.08566406 418.86472656 -27.14398437 419.10835937 -28.234375 419.359375 C-35.97098654 421.21326184 -43.5177755 423.5934826 -51.09179688 426.01123047 C-53.95636602 426.91381545 -56.83681649 427.7625518 -59.71484375 428.62109375 C-65.26012401 430.31834805 -70.63481002 432.34252709 -76.03125 434.4609375 C-81.55362738 436.59932874 -87.14857154 438.37001597 -92.83984375 439.99609375 C-97.51459355 441.38781316 -101.93290563 443.17965136 -106.4140625 445.09765625 C-111.81978124 447.37682415 -117.27762961 449.52356781 -122.73388672 451.6784668 C-128.22824811 453.86106126 -133.63978492 456.18773533 -139.02734375 458.62109375 C-140.52700566 459.2885206 -142.02696845 459.95527214 -143.52734375 460.62109375 C-144.27886719 460.95625 -145.03039062 461.29140625 -145.8046875 461.63671875 C-147.21009302 462.25914791 -148.61860265 462.87465507 -150.03125 463.48046875 C-162.65618817 468.94249133 -176.41729068 474.94240533 -187.30859375 483.390625 C-192.90274898 487.71798783 -197.16826099 488.22702518 -204.20703125 488.02734375 C-207.02734375 487.62109375 -207.02734375 487.62109375 -210.02734375 485.62109375 C-210.02734375 484.96109375 -210.02734375 484.30109375 -210.02734375 483.62109375 C-210.89359375 483.31171875 -210.89359375 483.31171875 -211.77734375 482.99609375 C-216.82655074 479.91046726 -219.05182846 473.98320668 -221.02734375 468.62109375 C-222.68793906 461.7232363 -221.61644638 455.93748184 -218.58984375 449.62109375 C-211.12527409 440.88208537 -201.2727258 434.63876378 -191.02734375 429.62109375 C-191.35734375 428.46609375 -191.68734375 427.31109375 -192.02734375 426.12109375 C-195.70513827 408.96700105 -190.90186371 394.8162473 -184.1484375 379.2265625 C-183.18171931 376.979869 -182.30000961 374.73142847 -181.46484375 372.43359375 C-180.48826359 369.7697001 -179.39944949 367.19906772 -178.21484375 364.62109375 C-175.12353346 357.76849338 -172.62996702 350.66966318 -170.02734375 343.62109375 C-166.54474547 334.20469223 -162.9403971 324.86909483 -159.02734375 315.62109375 C-155.2793881 306.68770434 -151.65015646 297.73101198 -148.29711914 288.64160156 C-146.2108958 283.02224694 -143.93392986 277.49255604 -141.6262207 271.96118164 C-139.7171893 267.36184264 -137.9273335 262.73426802 -136.21484375 258.05859375 C-133.29367879 250.1020505 -130.0014134 242.31001341 -126.71313477 234.49951172 C-123.97063442 227.9597432 -121.37912858 221.38797927 -118.93579102 214.73144531 C-117.44538403 210.68475152 -115.82485357 206.74099062 -114.0234375 202.82421875 C-112.79789325 200.11360323 -111.66362775 197.37027936 -110.52734375 194.62109375 C-108.13076102 188.83851341 -105.60983052 183.12118214 -103.03125 177.41796875 C-100.90120787 172.6771746 -98.92667201 167.89545673 -97.015625 163.0625 C-96.1278695 160.86942811 -95.19060811 158.71357971 -94.21484375 156.55859375 C-91.87428542 151.36664095 -89.73163527 146.09497859 -87.5769043 140.82397461 C-85.23066392 135.08835288 -82.81092877 129.38820077 -80.30859375 123.71875 C-80.01597656 123.05552734 -79.72335937 122.39230469 -79.421875 121.70898438 C-78.82696412 120.36199184 -78.23061628 119.01563301 -77.6328125 117.66992188 C-75.8600362 113.64407966 -74.24929168 109.58981889 -72.72851562 105.46264648 C-71.7755151 102.95969282 -70.66602709 100.54444548 -69.52734375 98.12109375 C-67.76729084 94.30677012 -66.18936318 90.49352577 -64.7578125 86.546875 C-64.00178452 84.55371032 -63.15718444 82.62518312 -62.27734375 80.68359375 C-59.93842753 75.51099058 -57.80288155 70.25829559 -55.66503906 65.00024414 C-53.14507908 58.82749154 -50.43592955 52.74938629 -47.69873047 46.67041016 C-46.20112665 43.34279638 -44.70677475 40.0137549 -43.21484375 36.68359375 C-42.68294434 35.49660889 -42.15104492 34.30962402 -41.60302734 33.08666992 C-38.57266804 26.26951529 -35.74066523 19.42919934 -33.15234375 12.43359375 C-27.89429689 -1.51979416 -27.89429689 -1.51979416 -20.77734375 -4.94140625 C-12.47955163 -5.909482 -6.8108447 -5.00903393 0 0 Z " fill="#020201" transform="translate(698.02734375,276.37890625)"/>
</svg>
